Coordinates
version=1
nRows=24
nColumns=24
inDegrees=yes

Units are S.I. units (second, meters, Newtons, ...)
Angles are in degrees.

endheader
time	pelvis_tilt	pelvis_list	pelvis_rotation	pelvis_tx	pelvis_ty	pelvis_tz	hip_flexion_r	hip_adduction_r	hip_rotation_r	knee_angle_r	ankle_angle_r	subtalar_angle_r	mtp_angle_r	hip_flexion_l	hip_adduction_l	hip_rotation_l	knee_angle_l	ankle_angle_l	subtalar_angle_l	mtp_angle_l	lumbar_extension	lumbar_bending	lumbar_rotation
      0.69116667	     -2.62787306	     -3.30172105	      1.11271488	     -0.47281879	      0.99186310	      0.29930137	     14.17665617	      7.55081804	     -4.57159243	    -18.53894858	      7.11325044	     -6.93649341	      4.00424467	     24.50655343	     -3.12915496	     -1.02347377	    -71.07607534	     -3.52910175	     -8.40331261	     -0.05210831	     -1.54601530	      7.03303736	      2.86605608
      0.69533333	     -2.59811592	     -3.25204473	      1.07629623	     -0.46753136	      0.99273408	      0.29949889	     13.58904504	      7.52269402	     -4.58663055	    -18.13130552	      7.16260967	     -6.77397725	      3.98899533	     25.03231017	     -3.01911918	     -0.95043798	    -70.67123702	     -3.06467316	     -8.73751485	     -0.10360529	     -1.62123065	      6.96574624	      2.94459318
      0.69950000	     -2.51375885	     -3.18185688	      1.04332497	     -0.46219224	      0.99370686	      0.29966017	     12.91843861	      7.46960888	     -4.60135043	    -17.67596808	      7.18302496	     -6.53611525	      3.96183546	     25.45627915	     -2.88582694	     -0.88724103	    -70.15711518	     -2.65913940	     -9.05070699	     -0.19069431	     -1.74464045	      6.88876213	      3.07587474
      0.70366667	     -2.44477728	     -3.10740233	      0.99436820	     -0.45686195	      0.99461866	      0.29984641	     12.27655841	      7.41529611	     -4.59835219	    -17.24647169	      7.21968313	     -6.33017004	      3.93393887	     25.87137838	     -2.75801955	     -0.84701499	    -69.57446274	     -2.21165478	     -9.37391500	     -0.27592500	     -1.85887688	      6.79789011	      3.19643001
      0.70783333	     -2.42677502	     -3.03942605	      0.92617364	     -0.45156077	      0.99538697	      0.30005221	     11.70808213	      7.37017134	     -4.56728410	    -16.85374866	      7.26928701	     -6.18279462	      3.91769988	     26.32311181	     -2.64591145	     -0.82471975	    -68.93749635	     -1.71684030	     -9.69488820	     -0.32413893	     -1.91695158	      6.71963912	      3.28530114
      0.71200000	     -2.35023845	     -2.94853687	      0.86936423	     -0.44621292	      0.99624557	      0.30023972	     11.05423303	      7.29821782	     -4.54883119	    -16.41516980	      7.30311673	     -5.95818385	      3.88594068	     26.67066873	     -2.50902428	     -0.80804641	    -68.19779953	     -1.30212232	    -10.00838982	     -0.42075769	     -2.03206871	      6.60618070	      3.45711423
      0.71616667	     -2.32389654	     -2.86883210	      0.78338842	     -0.44089578	      0.99696118	      0.30044612	     10.47929265	      7.23932505	     -4.50341416	    -16.02684410	      7.34613799	     -5.79073877	      3.86286751	     27.05258523	     -2.39675337	     -0.81811925	    -67.40873104	     -0.81441469	    -10.32679348	     -0.49189139	     -2.08869716	      6.52457580	      3.57606533
      0.72033333	     -2.29068238	     -2.79415514	      0.70019931	     -0.43557553	      0.99764438	      0.30065290	      9.89220171	      7.18669604	     -4.44375274	    -15.62522018	      7.39044328	     -5.63124538	      3.84072547	     27.40225712	     -2.29295704	     -0.82760031	    -66.55355159	     -0.34710692	    -10.62976997	     -0.56354081	     -2.16261995	      6.43610856	      3.71129556
      0.72450000	     -2.23783021	     -2.70881279	      0.62901577	     -0.43024061	      0.99832829	      0.30084530	      9.27420219	      7.11963605	     -4.39801941	    -15.20157249	      7.43722717	     -5.43909449	      3.80469658	     27.70180835	     -2.17595454	     -0.83521401	    -65.62055384	      0.06167266	    -10.92013877	     -0.68698702	     -2.26023160	      6.32405401	      3.90904959
      0.72866667	     -2.22410893	     -2.62794784	      0.53238145	     -0.42491589	      0.99889110	      0.30105481	      8.71611075	      7.05807348	     -4.32581784	    -14.81424977	      7.48822026	     -5.27518419	      3.76785024	     28.01872515	     -2.07605906	     -0.86926881	    -64.63238656	      0.50351213	    -11.21348091	     -0.82094424	     -2.30488927	      6.22506153	      4.07537839
      0.73283333	     -2.22315459	     -2.54383279	      0.41643841	     -0.41962189	      0.99939071	      0.30127073	      8.18676579	      6.99377921	     -4.22449607	    -14.45309732	      7.53723153	     -5.15424123	      3.74724156	     28.32182228	     -1.97989366	     -0.92201314	    -63.58038843	      0.96533049	    -11.50271287	     -0.90213975	     -2.34187822	      6.14076153	      4.18679665
      0.73700000	     -2.17775800	     -2.46678143	      0.33197602	     -0.41427121	      0.99991151	      0.30146012	      7.58425609	      6.93282598	     -4.16253418	    -14.04155137	      7.58993668	     -5.00181620	      3.71191667	     28.55143520	     -1.88600985	     -0.95648762	    -62.46134687	      1.32333607	    -11.78404232	     -1.05164644	     -2.42171644	      6.03512795	      4.39930154
      0.74116667	     -2.20064123	     -2.39143840	      0.20988720	     -0.40898079	      1.00025940	      0.30166474	      7.08982387	      6.87439066	     -4.04850722	    -13.69596573	      7.64360735	     -4.88774874	      3.69000074	     28.83253590	     -1.80407386	     -1.01418444	    -61.29371000	      1.73903766	    -12.05257134	     -1.15250717	     -2.42948495	      5.96076870	      4.52372341
      0.74533333	     -2.17899816	     -2.33091835	      0.12130510	     -0.40363542	      1.00063189	      0.30185971	      6.51887524	      6.83071840	     -3.97777068	    -13.29043056	      7.70098770	     -4.76899993	      3.65384763	     29.04262639	     -1.73548165	     -1.05698702	    -60.06558158	      2.04990892	    -12.31659840	     -1.32484341	     -2.47660542	      5.87457227	      4.73793753
      0.74950000	     -2.19833785	     -2.26445630	     -0.00111988	     -0.39833935	      1.00090858	      0.30205068	      6.01878649	      6.78094112	     -3.84356303	    -12.93670383	      7.75472361	     -4.67712771	      3.63011300	     29.26612985	     -1.66400397	     -1.11418873	    -58.77408793	      2.39606721	    -12.55911869	     -1.44386959	     -2.48976261	      5.80796708	      4.86415844
      0.75366667	     -2.20166115	     -2.19734797	     -0.09386779	     -0.39301930	      1.00114138	      0.30220364	      5.50182312	      6.72261456	     -3.78462529	    -12.58857051	      7.88536128	     -4.59594330	      2.98105670	     29.45246750	     -1.57997535	     -1.15115284	    -57.43435022	      2.71300959	    -12.75821200	     -4.59126112	     -2.51291148	      5.72155931	      5.16451275
      0.75783333	     -2.21503747	     -2.15168935	     -0.21285449	     -0.38768981	      1.00132296	      0.30240616	      4.97974871	      6.69637170	     -3.64168553	    -12.19819061	      7.90204784	     -4.50712439	      2.97396495	     29.62206952	     -1.54206960	     -1.22043387	    -56.03740557	      2.95886043	    -12.96784119	     -4.61344343	     -2.52843743	      5.68050861	      5.22016613
      0.76200000	     -2.22593728	     -2.10119037	     -0.31232478	     -0.38236570	      1.00144143	      0.30256660	      4.46620150	      6.65796075	     -3.54268404	    -11.83313600	      7.97742515	     -4.45294157	      2.96551747	     29.76488679	     -1.48515083	     -1.26655173	    -54.58246957	      3.16116991	    -13.16911669	     -4.64673050	     -2.53928117	      5.62091609	      5.34360471
      0.76616667	     -2.23071767	     -2.07162798	     -0.40782783	     -0.37702425	      1.00152735	      0.30273197	      3.93848017	      6.64392779	     -3.44407121	    -11.45279457	      8.05225546	     -4.41479644	      2.95273366	     29.87902758	     -1.45461466	     -1.31659059	    -53.08084900	      3.31447247	    -13.35523421	     -4.69447709	     -2.55760387	      5.58362331	      5.49232194
      0.77033333	     -2.25434847	     -2.02947535	     -0.50280231	     -0.37168027	      1.00153671	      0.30287977	      3.43888685	      6.61250866	     -3.35574744	    -11.08976879	      8.14080442	     -4.38612260	      2.93725291	     29.98535188	     -1.40745734	     -1.36775170	    -51.52036679	      3.42989508	    -13.51800814	     -4.75222749	     -2.55224410	      5.53417177	      5.63098622
      0.77450000	     -2.27603016	     -2.00745991	     -0.59772217	     -0.36635283	      1.00149942	      0.30302373	      2.93930461	      6.60362488	     -3.25671906	    -10.72738338	      8.23157312	     -4.36431963	      2.92065405	     30.06795284	     -1.38379664	     -1.41900656	    -49.91670163	      3.51891694	    -13.63764269	     -4.81067122	     -2.56539437	      5.51347651	      5.75076595
      0.77866667	     -2.28596361	     -1.98018919	     -0.68305792	     -0.36098395	      1.00143687	      0.30315223	      2.42045353	      6.58643968	     -3.18806758	    -10.35526185	      8.32960019	     -4.35806565	      2.89867692	     30.10874262	     -1.35440797	     -1.47971528	    -48.25881051	      3.56104187	    -13.74233572	     -4.88029485	     -2.57789174	      5.48591121	      5.87559151
      0.78283333	     -2.29437123	     -1.95522961	     -0.76662082	     -0.35562687	      1.00132687	      0.30327683	      1.90821674	      6.57158877	     -3.11888816	    -10.00207167	      8.43462154	     -4.35025222	      2.87266189	     30.12114555	     -1.32452422	     -1.53471376	    -46.54958735	      3.56947324	    -13.81592679	     -4.95494397	     -2.59108648	      5.45052906	      5.98772028
      0.78700000	     -2.29641600	     -1.94553396	     -0.84463782	     -0.35025503	      1.00118163	      0.30338731	      1.38710278	      6.57104116	     -3.06751198	     -9.64496856	      8.54695531	     -4.34526841	      2.84278828	     30.10325935	     -1.30995486	     -1.59090864	    -44.80141419	      3.55503475	    -13.84161589	     -5.03135520	     -2.61242598	      5.44141924	      6.08890993
